# xmcd
#
# Track frame offsets:
#	150
#	14915
#	29622
#	45362
#	63640
#	78790
#	95072
#	111180
#	123247
#	134420
#
# Disc length: 1939 seconds
#
# Revision: 0
# Processed by: cddbd v1.5.2PL0 Copyright (c) Steve Scherf et al.
# Submitted via: audiograbber 1.83.01
#
DISCID=8807910a
DTITLE=Merle Haggard and George Jones - A Taste of Yesterday's Wine
DYEAR=1985
DGENRE=Country
TTITLE0=Yesterday's Wine
TTITLE1=After I Sing All My Songs
TTITLE2=I Think I've Found A Way
TTITLE3=Brothers, The
TTITLE4=Mobile Bay
TTITLE5=C.C. Waterback
TTITLE6=Silver Eagle
TTITLE7=Must've Been Drunk
TTITLE8=I Haven't Found Her Yet
TTITLE9=No Show Jones
EXTD=
EXTT0=
EXTT1=
EXTT2=
EXTT3=
EXTT4=
EXTT5=
EXTT6=
EXTT7=
EXTT8=
EXTT9=
PLAYORDER=
